<svg xmlns="http://www.w3.org/2000/svg" viewBox="0 0 200 200" fill="none">
  <defs>
    <!-- Gradients for realistic shading -->
    <radialGradient id="bodyGradient" cx="50%" cy="50%">
      <stop offset="0%" style="stop-color:#FFEB3B;stop-opacity:1" />
      <stop offset="70%" style="stop-color:#FDD835;stop-opacity:1" />
      <stop offset="100%" style="stop-color:#F9A825;stop-opacity:1" />
    </radialGradient>
    
    <radialGradient id="headGradient" cx="40%" cy="40%">
      <stop offset="0%" style="stop-color:#FFF9C4;stop-opacity:1" />
      <stop offset="60%" style="stop-color:#FFEB3B;stop-opacity:1" />
      <stop offset="100%" style="stop-color:#FDD835;stop-opacity:1" />
    </radialGradient>
    
    <radialGradient id="wingGradient" cx="30%" cy="30%">
      <stop offset="0%" style="stop-color:#FFEB3B;stop-opacity:1" />
      <stop offset="50%" style="stop-color:#FBC02D;stop-opacity:1" />
      <stop offset="100%" style="stop-color:#F57F17;stop-opacity:1" />
    </radialGradient>
    
    <linearGradient id="beakGradient" x1="0%" y1="0%" x2="100%" y2="100%">
      <stop offset="0%" style="stop-color:#FF6F00;stop-opacity:1" />
      <stop offset="100%" style="stop-color:#E65100;stop-opacity:1" />
    </linearGradient>
  </defs>
  
  <!-- Tail feathers - layered for depth -->
  <ellipse cx="95" cy="155" rx="18" ry="45" fill="#C62828" transform="rotate(-25 95 155)" opacity="0.9"/>
  <ellipse cx="100" cy="158" rx="16" ry="42" fill="#D32F2F" transform="rotate(-15 100 158)" opacity="0.95"/>
  <ellipse cx="105" cy="160" rx="18" ry="45" fill="#E53935" transform="rotate(-5 105 160)"/>
  <ellipse cx="110" cy="158" rx="16" ry="42" fill="#F44336" transform="rotate(5 110 158)" opacity="0.95"/>
  <ellipse cx="115" cy="155" rx="18" ry="45" fill="#EF5350" transform="rotate(15 115 155)" opacity="0.9"/>
  
  <!-- Body -->
  <ellipse cx="105" cy="115" rx="40" ry="55" fill="url(#bodyGradient)"/>
  
  <!-- Chest highlight -->
  <ellipse cx="105" cy="105" rx="25" ry="35" fill="#FFF9C4" opacity="0.3"/>
  
  <!-- Wing -->
  <path d="M 75 100 Q 55 110 50 130 Q 48 145 55 155 Q 65 160 75 155 Q 82 150 85 135 Q 87 120 85 105 Z" 
        fill="url(#wingGradient)"/>
  
  <!-- Wing feather details -->
  <path d="M 60 125 Q 55 135 58 145" stroke="#F57F17" stroke-width="2" stroke-linecap="round" fill="none" opacity="0.6"/>
  <path d="M 65 128 Q 60 138 63 148" stroke="#F57F17" stroke-width="2" stroke-linecap="round" fill="none" opacity="0.6"/>
  <path d="M 70 130 Q 65 140 68 150" stroke="#F57F17" stroke-width="2" stroke-linecap="round" fill="none" opacity="0.6"/>
  
  <!-- Neck -->
  <ellipse cx="100" cy="80" rx="22" ry="28" fill="url(#headGradient)"/>
  
  <!-- Head -->
  <ellipse cx="100" cy="55" rx="28" ry="30" fill="url(#headGradient)"/>
  
  <!-- Head highlight -->
  <ellipse cx="95" cy="45" rx="15" ry="18" fill="#FFFDE7" opacity="0.4"/>
  
  <!-- Crest feathers -->
  <path d="M 85 35 Q 82 25 85 20 Q 88 22 87 30" fill="#FFD54F"/>
  <path d="M 95 30 Q 95 18 98 15 Q 100 18 98 28" fill="#FFEB3B"/>
  <path d="M 105 32 Q 108 22 112 20 Q 113 24 110 32" fill="#FFD54F"/>
  <path d="M 115 38 Q 120 30 123 28 Q 123 32 120 38" fill="#FDD835"/>
  
  <!-- Beak upper -->
  <path d="M 115 55 Q 125 53 135 55 Q 138 57 136 60 Q 130 62 120 60 Z" 
        fill="url(#beakGradient)"/>
  
  <!-- Beak lower -->
  <path d="M 115 60 Q 125 62 132 60 Q 133 63 130 65 Q 125 64 120 63 Z" 
        fill="#E65100" opacity="0.8"/>
  
  <!-- Nostril -->
  <circle cx="122" cy="56" r="2" fill="#BF360C" opacity="0.6"/>
  
  <!-- Eye socket -->
  <circle cx="110" cy="50" r="10" fill="#FFFFFF"/>
  
  <!-- Iris -->
  <circle cx="112" cy="50" r="7" fill="#1A237E"/>
  
  <!-- Pupil -->
  <circle cx="113" cy="49" r="4" fill="#000000"/>
  
  <!-- Eye shine -->
  <circle cx="111" cy="47" r="2.5" fill="#FFFFFF" opacity="0.9"/>
  <circle cx="115" cy="51" r="1" fill="#FFFFFF" opacity="0.6"/>
  
  <!-- Eye outline detail -->
  <circle cx="110" cy="50" r="10" fill="none" stroke="#F9A825" stroke-width="1" opacity="0.5"/>
  
  <!-- Cheek patch -->
  <ellipse cx="108" cy="62" rx="8" ry="5" fill="#FFB300" opacity="0.4"/>
  
  <!-- Feet -->
  <g transform="translate(85, 165)">
    <!-- Left foot -->
    <path d="M 0 0 L -3 10 M 0 0 L 0 12 M 0 0 L 3 10 M 0 0 L 6 8" 
          stroke="#E65100" stroke-width="3" stroke-linecap="round"/>
    <circle cx="-3" cy="10" r="1.5" fill="#BF360C"/>
    <circle cx="0" cy="12" r="1.5" fill="#BF360C"/>
    <circle cx="3" cy="10" r="1.5" fill="#BF360C"/>
    <circle cx="6" cy="8" r="1.5" fill="#BF360C"/>
  </g>
  
  <g transform="translate(125, 165)">
    <!-- Right foot -->
    <path d="M 0 0 L -3 10 M 0 0 L 0 12 M 0 0 L 3 10 M 0 0 L -6 8" 
          stroke="#E65100" stroke-width="3" stroke-linecap="round"/>
    <circle cx="-3" cy="10" r="1.5" fill="#BF360C"/>
    <circle cx="0" cy="12" r="1.5" fill="#BF360C"/>
    <circle cx="3" cy="10" r="1.5" fill="#BF360C"/>
    <circle cx="-6" cy="8" r="1.5" fill="#BF360C"/>
  </g>
  
  <!-- Body contour shadows for depth -->
  <ellipse cx="105" cy="140" rx="35" ry="20" fill="#F57F17" opacity="0.15"/>
</svg>
